<?xml version="1.0" standalone="no"?><!DOCTYPE svg PUBLIC "-//W3C//DTD SVG 1.1//EN" "http://www.w3.org/Graphics/SVG/1.1/DTD/svg11.dtd"><svg t="1498901084516" class="icon" style="" viewBox="0 0 1126 1024" version="1.1" xmlns="http://www.w3.org/2000/svg" p-id="29210" xmlns:xlink="http://www.w3.org/1999/xlink" width="35.1875" height="32"><defs><style type="text/css"></style></defs><path d="M943.544 511.76c-26.497 0-47.976 21.48-47.976 47.976 0 0 0 0 0 0v243.478c0 73.883-17.032 92.354-95.952 92.354h-575.712c-71.964 0-92.833-14.872-95.952-71.964v-599.7c0-71.964 12.473-92.594 78.201-95.952h641.439c26.497 0 47.976-21.48 47.976-47.976s-21.48-47.976-47.976-47.976h-723.958c-51.102 2.373-91.634 44.38-91.634 95.855 0 0.034 0 0.068 0 0.102v771.929c2.373 51.102 44.38 91.634 95.855 91.634 0.034 0 0.068 0 0.102 0h767.611c52.993 0 95.952-42.959 95.952-95.952 0 0 0 0 0 0v-335.832c0-26.497-21.48-47.976-47.976-47.976zM127.952 127.952zM1068.282 144.264c-12.078-12.128-28.791-19.634-47.257-19.634s-35.179 7.506-47.254 19.632l-539.733 542.131c-12.094 12.094-19.574 28.802-19.574 47.257 0 36.909 29.921 66.831 66.831 66.831 18.455 0 35.163-7.48 47.257-19.574l539.73-541.889c12.128-12.078 19.634-28.791 19.634-47.257s-7.506-35.179-19.632-47.254z" fill="#a0a0a0" p-id="29211"></path></svg>